<svg xmlns="http://www.w3.org/2000/svg" viewBox="0 0 695 540" role="img" aria-labelledby="title desc">
  <title id="title">Join our Discord button</title>
  <desc id="desc">Wide purple button with a Discord-style icon and Join our Discord text.</desc>
  <defs>
    <linearGradient id="bg" x1="0%" y1="0%" x2="100%" y2="100%">
      <stop offset="0%" stop-color="#6f7cff"/>
      <stop offset="100%" stop-color="#5865f2"/>
    </linearGradient>
    <linearGradient id="shine" x1="50%" y1="0%" x2="50%" y2="100%">
      <stop offset="0%" stop-color="#ffffff" stop-opacity="0.32"/>
      <stop offset="100%" stop-color="#ffffff" stop-opacity="0"/>
    </linearGradient>
  </defs>
  <rect width="695" height="540" rx="101" fill="url(#bg)"/>
  <rect x="24" y="19" width="647" height="502" rx="83" fill="none" stroke="#aeb7ff" stroke-opacity="0.5" stroke-width="8"/>
  <rect x="73" y="57" width="549" height="190" rx="76" fill="url(#shine)"/>
  <g transform="translate(347.5 232) scale(0.56) translate(-256 -220)" fill="#ffffff">
    <path d="M325 149c-18-10-37-17-57-20l-6 14a171 171 0 0 1 42 14 132 132 0 0 0-96 0 171 171 0 0 1 42-14l-6-14c-20 3-39 10-57 20-36 53-46 105-41 156 24 18 46 29 68 36l17-27a110 110 0 0 1-32-16 95 95 0 0 0 114 0 110 110 0 0 1-32 16l17 27c22-7 44-18 68-36 5-51-5-103-41-156Z"/>
    <circle cx="221" cy="223" r="16"/>
    <circle cx="291" cy="223" r="16"/>
    <path d="M216 270c12 12 26 18 40 18s28-6 40-18" fill="none" stroke="#5865f2" stroke-linecap="round" stroke-width="14"/>
  </g>
  <g fill="#ffffff" font-family="Arial, Helvetica, sans-serif" text-anchor="middle">
    <text x="347.5" y="402" font-size="52" font-weight="700" letter-spacing="4">JOIN OUR</text>
    <text x="347.5" y="466" font-size="68" font-weight="800" letter-spacing="2">DISCORD</text>
  </g>
</svg>
